<svg data-v-423bf9ae="" xmlns="http://www.w3.org/2000/svg" viewBox="0 0 891.33011000564 163" class="iconAbove"><!----><!----><!----><g data-v-423bf9ae="" id="bc002781-fc5b-4a68-989d-3562580d566d" fill="#2F190E" transform="matrix(5.741626375070499,0,0,5.741626375070499,-2.7559695301486613,82.96172031996886)"><path d="M1.48 3.79L0.48 3.79L0.48 4.38C0.48 4.52 0.55 4.62 0.69 4.65C0.77 4.68 1.04 4.73 1.48 4.82L1.48 12.81L0.69 12.96C0.55 12.99 0.48 13.09 0.48 13.23L0.48 13.82L3.86 13.82L3.86 13.23C3.86 13.09 3.78 12.99 3.64 12.96C3.22 12.88 2.97 12.84 2.86 12.81L2.86 9.51L6.66 9.51L6.66 8.41L2.86 8.41L2.86 4.90L6.83 4.90C6.89 5.57 6.94 5.94 6.94 5.98C6.97 6.15 7.06 6.22 7.22 6.22L7.91 6.22L7.91 3.79ZM11.38 6.62C10.86 6.62 10.40 6.71 9.98 6.87C9.56 7.04 9.20 7.29 8.90 7.60C8.61 7.91 8.39 8.30 8.22 8.75C8.05 9.20 7.99 9.70 7.99 10.26C7.99 10.82 8.05 11.33 8.22 11.77C8.39 12.22 8.61 12.61 8.90 12.92C9.20 13.23 9.56 13.48 9.98 13.65C10.40 13.82 10.86 13.90 11.38 13.90C11.90 13.90 12.36 13.82 12.78 13.65C13.20 13.48 13.57 13.23 13.86 12.92C14.15 12.61 14.38 12.22 14.53 11.77C14.69 11.33 14.77 10.82 14.77 10.26C14.77 9.70 14.69 9.20 14.53 8.75C14.38 8.30 14.15 7.91 13.86 7.60C13.57 7.29 13.20 7.04 12.78 6.87C12.36 6.71 11.90 6.62 11.38 6.62ZM11.38 12.95C11.02 12.95 10.71 12.87 10.46 12.75C10.21 12.64 9.98 12.47 9.81 12.25C9.65 12.03 9.51 11.75 9.42 11.41C9.34 11.07 9.28 10.71 9.28 10.29C9.28 9.87 9.34 9.48 9.42 9.14C9.51 8.81 9.65 8.53 9.81 8.30C9.98 8.08 10.21 7.88 10.46 7.77C10.71 7.66 11.02 7.60 11.38 7.60C12.08 7.60 12.61 7.83 12.95 8.30C13.29 8.78 13.47 9.44 13.47 10.28C13.47 11.12 13.29 11.77 12.95 12.25C12.61 12.73 12.08 12.95 11.38 12.95ZM19.12 6.62C18.61 6.62 18.14 6.71 17.72 6.87C17.30 7.04 16.94 7.29 16.65 7.60C16.35 7.91 16.13 8.30 15.96 8.75C15.79 9.20 15.74 9.70 15.74 10.26C15.74 10.82 15.79 11.33 15.96 11.77C16.13 12.22 16.35 12.61 16.65 12.92C16.94 13.23 17.30 13.48 17.72 13.65C18.14 13.82 18.61 13.90 19.12 13.90C19.64 13.90 20.10 13.82 20.52 13.65C20.94 13.48 21.31 13.23 21.60 12.92C21.90 12.61 22.12 12.22 22.27 11.77C22.43 11.33 22.51 10.82 22.51 10.26C22.51 9.70 22.43 9.20 22.27 8.75C22.12 8.30 21.90 7.91 21.60 7.60C21.31 7.29 20.94 7.04 20.52 6.87C20.10 6.71 19.64 6.62 19.12 6.62ZM19.12 12.95C18.76 12.95 18.45 12.87 18.20 12.75C17.95 12.64 17.72 12.47 17.56 12.25C17.39 12.03 17.25 11.75 17.16 11.41C17.08 11.07 17.02 10.71 17.02 10.29C17.02 9.87 17.08 9.48 17.16 9.14C17.25 8.81 17.39 8.53 17.56 8.30C17.72 8.08 17.95 7.88 18.20 7.77C18.45 7.66 18.76 7.60 19.12 7.60C19.82 7.60 20.36 7.83 20.69 8.30C21.03 8.78 21.21 9.44 21.21 10.28C21.21 11.12 21.03 11.77 20.69 12.25C20.36 12.73 19.82 12.95 19.12 12.95ZM26.63 6.59C25.69 6.59 24.93 6.96 24.37 7.66C23.83 8.33 23.55 9.23 23.55 10.29C23.55 11.47 23.80 12.35 24.28 12.98C24.75 13.59 25.40 13.90 26.24 13.90C27.16 13.90 27.94 13.51 28.62 12.70L28.73 13.55C28.78 13.72 28.90 13.82 29.06 13.82L30.80 13.82L30.80 13.20C30.80 13.06 30.74 12.98 30.60 12.95C30.52 12.92 30.24 12.87 29.79 12.78L29.79 3.49L27.41 3.49L27.41 4.10C27.41 4.24 27.48 4.33 27.62 4.35C27.76 4.38 28.08 4.44 28.56 4.52L28.56 7.43C28.06 6.87 27.40 6.59 26.61 6.59ZM26.64 12.89C26.36 12.89 26.10 12.85 25.87 12.75C25.17 12.45 24.84 11.63 24.84 10.29C24.84 9.42 25.00 8.75 25.37 8.27C25.73 7.80 26.25 7.57 26.92 7.57C27.59 7.57 28.14 7.85 28.56 8.41L28.56 11.83C28.03 12.54 27.38 12.91 26.66 12.91ZM49.07 3.79L46.33 3.79L46.33 4.38C46.33 4.52 46.41 4.62 46.55 4.65C47.03 4.75 47.28 4.80 47.33 4.80L45.47 11.07C45.44 11.19 45.42 11.33 45.39 11.47C45.36 11.61 45.35 11.77 45.32 11.91C45.26 11.61 45.18 11.33 45.09 11.07L42.74 4.10C42.66 3.88 42.50 3.77 42.28 3.77L41.89 3.77C41.78 3.77 41.68 3.81 41.59 3.88C41.51 3.95 41.45 4.02 41.43 4.10L39.06 11.07C39.00 11.24 38.93 11.52 38.85 11.94C38.79 11.58 38.71 11.28 38.65 11.07L36.81 4.80C36.86 4.80 37.11 4.73 37.59 4.63C37.73 4.61 37.81 4.52 37.81 4.38L37.81 3.78L34.40 3.78L34.40 4.38C34.40 4.52 34.48 4.61 34.62 4.63C34.71 4.66 34.93 4.72 35.32 4.80L38.12 13.82L39.35 13.82L41.90 6.17C41.93 6.10 41.93 6.01 41.96 5.92C41.99 5.84 42 5.75 42.03 5.67C42.07 5.87 42.11 6.03 42.17 6.17L44.70 13.82L45.93 13.82L48.73 4.82L49.43 4.66C49.57 4.63 49.66 4.54 49.66 4.40L49.66 3.79ZM52.75 7.69L52.75 3.51L50.34 3.51L50.34 4.10C50.34 4.24 50.43 4.34 50.57 4.37C50.65 4.40 50.96 4.45 51.49 4.54L51.49 12.81L50.71 12.96C50.57 12.99 50.48 13.09 50.48 13.23L50.48 13.82L53.76 13.82L53.76 13.23C53.76 13.09 53.68 12.99 53.54 12.96C53.48 12.95 53.28 12.91 52.92 12.84L52.75 12.81L52.75 8.61C53.34 7.95 53.96 7.62 54.66 7.62C55.65 7.62 56.15 8.19 56.15 9.31L56.15 13.82L58.41 13.82L58.41 13.23C58.41 13.09 58.34 12.99 58.20 12.96C58.11 12.94 57.85 12.88 57.40 12.80L57.40 9.31C57.40 8.50 57.19 7.83 56.78 7.35C56.36 6.86 55.78 6.62 55.02 6.62C54.17 6.62 53.42 6.99 52.75 7.69ZM62.37 6.62C61.87 6.62 61.40 6.71 60.98 6.89C60.56 7.07 60.21 7.32 59.93 7.63C59.65 7.94 59.43 8.33 59.28 8.75C59.12 9.17 59.04 9.62 59.04 10.12C59.04 10.74 59.12 11.27 59.29 11.75C59.46 12.22 59.68 12.61 59.99 12.94C60.30 13.26 60.65 13.51 61.07 13.68C61.49 13.85 61.94 13.93 62.43 13.93C62.68 13.93 62.94 13.90 63.20 13.86C63.45 13.82 63.70 13.75 63.95 13.66C64.20 13.58 64.41 13.45 64.64 13.31C64.86 13.17 65.04 13.03 65.20 12.84L64.85 12.38C64.79 12.29 64.72 12.25 64.61 12.25C64.53 12.25 64.44 12.29 64.33 12.36C64.22 12.43 64.08 12.50 63.91 12.59C63.74 12.67 63.55 12.75 63.32 12.82C63.10 12.89 62.82 12.92 62.51 12.92C62.17 12.92 61.89 12.87 61.61 12.75C61.33 12.64 61.11 12.47 60.91 12.25C60.72 12.03 60.55 11.77 60.44 11.44C60.33 11.10 60.27 10.71 60.27 10.26L64.97 10.26C65.09 10.26 65.18 10.22 65.23 10.16C65.27 10.11 65.28 9.97 65.28 9.77C65.28 9.27 65.20 8.82 65.06 8.43C64.92 8.04 64.69 7.70 64.44 7.43C64.19 7.17 63.88 6.97 63.52 6.83C63.15 6.69 62.76 6.62 62.34 6.62ZM62.37 7.55C62.65 7.55 62.92 7.59 63.14 7.69C63.36 7.78 63.56 7.92 63.71 8.09C63.87 8.26 63.97 8.48 64.05 8.72C64.13 8.96 64.18 9.23 64.18 9.51L60.33 9.51C60.41 8.89 60.63 8.40 60.97 8.05C61.31 7.70 61.78 7.53 62.38 7.53ZM68.31 8.18L68.22 7.07C68.19 6.94 68.17 6.86 68.11 6.80C68.05 6.75 67.98 6.73 67.84 6.73L67.13 6.73L66.12 6.73L66.12 7.32C66.12 7.46 66.19 7.56 66.33 7.59C66.42 7.62 66.68 7.67 67.13 7.76L67.13 12.81L66.33 12.96C66.19 12.99 66.12 13.09 66.12 13.23L66.12 13.82L69.38 13.82L69.38 13.23C69.38 13.09 69.31 12.99 69.17 12.96C68.75 12.88 68.49 12.84 68.38 12.81L68.38 9.31C68.77 8.33 69.38 7.83 70.20 7.83C70.45 7.83 70.63 7.85 70.77 7.90C70.91 7.94 71.02 7.97 71.11 7.97C71.19 7.97 71.26 7.90 71.29 7.78L71.44 6.85C71.16 6.68 70.84 6.59 70.48 6.59C69.55 6.59 68.84 7.13 68.32 8.18ZM75.05 6.62C74.55 6.62 74.09 6.71 73.67 6.89C73.25 7.07 72.90 7.32 72.62 7.63C72.34 7.94 72.11 8.33 71.96 8.75C71.81 9.17 71.72 9.62 71.72 10.12C71.72 10.74 71.81 11.27 71.97 11.75C72.14 12.22 72.37 12.61 72.67 12.94C72.98 13.26 73.33 13.51 73.75 13.68C74.17 13.85 74.62 13.93 75.11 13.93C75.36 13.93 75.63 13.90 75.88 13.86C76.13 13.82 76.38 13.75 76.64 13.66C76.89 13.58 77.10 13.45 77.32 13.31C77.55 13.17 77.73 13.03 77.88 12.84L77.53 12.38C77.48 12.29 77.41 12.25 77.29 12.25C77.21 12.25 77.13 12.29 77.01 12.36C76.90 12.43 76.76 12.50 76.59 12.59C76.43 12.67 76.23 12.75 76.01 12.82C75.78 12.89 75.50 12.92 75.19 12.92C74.86 12.92 74.58 12.87 74.30 12.75C74.02 12.64 73.79 12.47 73.60 12.25C73.40 12.03 73.23 11.77 73.12 11.44C73.01 11.10 72.95 10.71 72.95 10.26L77.66 10.26C77.77 10.26 77.87 10.22 77.91 10.16C77.95 10.11 77.97 9.97 77.97 9.77C77.97 9.27 77.88 8.82 77.74 8.43C77.60 8.04 77.38 7.70 77.13 7.43C76.87 7.17 76.57 6.97 76.20 6.83C75.84 6.69 75.45 6.62 75.03 6.62ZM75.05 7.55C75.33 7.55 75.60 7.59 75.82 7.69C76.05 7.78 76.24 7.92 76.40 8.09C76.55 8.26 76.65 8.48 76.73 8.72C76.82 8.96 76.86 9.23 76.86 9.51L73.01 9.51C73.09 8.89 73.32 8.40 73.65 8.05C73.99 7.70 74.47 7.53 75.07 7.53ZM84.98 4.65C85.12 4.62 85.19 4.52 85.19 4.38L85.19 3.79L81.82 3.79L81.82 4.38C81.82 4.52 81.87 4.61 81.98 4.63C82.10 4.66 82.38 4.72 82.82 4.80L82.82 12.80L82.01 12.95C81.87 12.98 81.82 13.08 81.82 13.22L81.82 13.82L85.19 13.82L85.19 13.22C85.19 13.08 85.13 12.99 85.02 12.96C84.91 12.94 84.62 12.88 84.17 12.80L84.17 4.80ZM88.65 13.93C88.97 13.93 89.28 13.87 89.59 13.76C89.89 13.65 90.15 13.48 90.37 13.29L90.01 12.70C89.95 12.61 89.89 12.59 89.84 12.59C89.81 12.59 89.75 12.61 89.70 12.64C89.64 12.67 89.60 12.71 89.53 12.75C89.46 12.80 89.38 12.84 89.28 12.87C89.18 12.89 89.07 12.92 88.93 12.92C88.70 12.92 88.49 12.85 88.35 12.71C88.21 12.57 88.14 12.35 88.14 12.04L88.14 7.78L90.17 7.78L90.17 6.87L88.14 6.87L88.14 4.44L87.51 4.44C87.43 4.44 87.37 4.45 87.32 4.49C87.26 4.54 87.23 4.59 87.23 4.66L86.95 6.86L85.79 7.01L85.79 7.50C85.79 7.59 85.81 7.67 85.86 7.71C85.92 7.76 85.97 7.77 86.06 7.77L86.91 7.77L86.91 12.11C86.91 12.70 87.05 13.15 87.36 13.45C87.67 13.76 88.09 13.93 88.65 13.93ZM98.97 8.51C98.63 8.37 98.04 8.16 97.20 7.88C96.91 7.78 96.64 7.67 96.42 7.53C95.91 7.25 95.66 6.86 95.66 6.37C95.66 5.92 95.83 5.53 96.14 5.25C96.47 4.94 96.95 4.80 97.54 4.80C98.01 4.80 98.57 4.90 99.19 5.07C99.25 5.88 99.29 6.29 99.29 6.31C99.32 6.48 99.41 6.55 99.58 6.55L100.25 6.55L100.25 4.24C99.30 3.85 98.36 3.68 97.44 3.68C96.52 3.68 95.77 3.96 95.20 4.52C94.67 5.05 94.40 5.67 94.40 6.43C94.40 7.22 94.64 7.85 95.14 8.30C95.37 8.50 95.63 8.68 95.91 8.81C96.19 8.93 96.78 9.11 97.68 9.39C97.96 9.48 98.21 9.59 98.43 9.73C98.94 10.01 99.19 10.43 99.19 10.96C99.19 11.52 99.02 11.96 98.66 12.29C98.49 12.46 98.27 12.59 98.01 12.67C97.76 12.75 97.43 12.81 96.98 12.81C96.53 12.81 95.97 12.67 95.27 12.42C95.27 12.42 95.26 12.19 95.23 11.80C95.20 11.41 95.17 11.17 95.16 11.12C95.13 10.95 95.05 10.88 94.88 10.88L94.19 10.88L94.19 13.40L94.60 13.54C94.88 13.62 95.24 13.72 95.72 13.80C96.19 13.89 96.66 13.93 97.09 13.93C98.13 13.93 98.97 13.64 99.58 13.02C100.17 12.43 100.45 11.69 100.45 10.77C100.45 9.72 99.95 8.96 98.94 8.51ZM103.53 7.69L103.53 3.51L101.12 3.51L101.12 4.10C101.12 4.24 101.21 4.34 101.35 4.37C101.43 4.40 101.74 4.45 102.27 4.54L102.27 12.81L101.49 12.96C101.35 12.99 101.26 13.09 101.26 13.23L101.26 13.82L104.54 13.82L104.54 13.23C104.54 13.09 104.45 12.99 104.31 12.96C104.26 12.95 104.06 12.91 103.70 12.84L103.53 12.81L103.53 8.61C104.12 7.95 104.73 7.62 105.43 7.62C106.43 7.62 106.93 8.19 106.93 9.31L106.93 13.82L109.19 13.82L109.19 13.23C109.19 13.09 109.12 12.99 108.98 12.96C108.89 12.94 108.63 12.88 108.18 12.80L108.18 9.31C108.18 8.50 107.97 7.83 107.56 7.35C107.14 6.86 106.55 6.62 105.80 6.62C104.94 6.62 104.20 6.99 103.53 7.69ZM113.23 6.62C112.71 6.62 112.25 6.71 111.83 6.87C111.41 7.04 111.05 7.29 110.75 7.60C110.46 7.91 110.24 8.30 110.07 8.75C109.90 9.20 109.84 9.70 109.84 10.26C109.84 10.82 109.90 11.33 110.07 11.77C110.24 12.22 110.46 12.61 110.75 12.92C111.05 13.23 111.41 13.48 111.83 13.65C112.25 13.82 112.71 13.90 113.23 13.90C113.75 13.90 114.21 13.82 114.63 13.65C115.05 13.48 115.42 13.23 115.71 12.92C116.00 12.61 116.23 12.22 116.38 11.77C116.54 11.33 116.62 10.82 116.62 10.26C116.62 9.70 116.54 9.20 116.38 8.75C116.23 8.30 116.00 7.91 115.71 7.60C115.42 7.29 115.05 7.04 114.63 6.87C114.21 6.71 113.75 6.62 113.23 6.62ZM113.23 12.95C112.87 12.95 112.56 12.87 112.31 12.75C112.06 12.64 111.83 12.47 111.66 12.25C111.50 12.03 111.36 11.75 111.27 11.41C111.19 11.07 111.13 10.71 111.13 10.29C111.13 9.87 111.19 9.48 111.27 9.14C111.36 8.81 111.50 8.53 111.66 8.30C111.83 8.08 112.06 7.88 112.31 7.77C112.56 7.66 112.87 7.60 113.23 7.60C113.93 7.60 114.46 7.83 114.80 8.30C115.14 8.78 115.32 9.44 115.32 10.28C115.32 11.12 115.14 11.77 114.80 12.25C114.46 12.73 113.93 12.95 113.23 12.95ZM120.88 12.94C120.37 12.94 120.01 12.80 119.76 12.50C119.50 12.21 119.39 11.77 119.39 11.24L119.39 6.73L117.12 6.73L117.12 7.32C117.12 7.46 117.21 7.56 117.35 7.59C117.43 7.62 117.68 7.67 118.13 7.76L118.13 11.26C118.13 12.10 118.36 12.73 118.75 13.20C119.17 13.69 119.76 13.94 120.51 13.94C121.41 13.94 122.19 13.57 122.86 12.81L122.96 13.57C123.02 13.73 123.13 13.83 123.30 13.83L125.05 13.83L125.05 13.23C125.05 13.09 124.98 13.01 124.84 12.98C124.75 12.95 124.49 12.89 124.04 12.81L124.04 6.73L122.79 6.73L121.79 6.73L121.79 7.34C121.79 7.48 121.86 7.57 122.00 7.60C122.44 7.69 122.71 7.74 122.79 7.77L122.79 11.97C122.22 12.61 121.58 12.95 120.88 12.95ZM128.91 12.95C128.83 12.92 128.58 12.87 128.13 12.78L128.13 3.50L125.86 3.50L125.86 4.10C125.86 4.24 125.94 4.33 126.08 4.35C126.17 4.38 126.42 4.44 126.87 4.52L126.87 12.80L126.08 12.95C125.94 12.98 125.86 13.08 125.86 13.22L125.86 13.82L129.14 13.82L129.14 13.22C129.14 13.08 129.05 12.98 128.91 12.95ZM132.86 6.59C131.92 6.59 131.17 6.96 130.61 7.66C130.06 8.33 129.78 9.23 129.78 10.29C129.78 11.47 130.03 12.35 130.51 12.98C130.98 13.59 131.63 13.90 132.47 13.90C133.39 13.90 134.18 13.51 134.85 12.70L134.96 13.55C135.02 13.72 135.13 13.82 135.30 13.82L137.03 13.82L137.03 13.20C137.03 13.06 136.98 12.98 136.84 12.95C136.75 12.92 136.47 12.87 136.02 12.78L136.02 3.49L133.64 3.49L133.64 4.10C133.64 4.24 133.71 4.33 133.85 4.35C133.99 4.38 134.32 4.44 134.79 4.52L134.79 7.43C134.29 6.87 133.63 6.59 132.85 6.59ZM132.87 12.89C132.59 12.89 132.33 12.85 132.10 12.75C131.40 12.45 131.07 11.63 131.07 10.29C131.07 9.42 131.24 8.75 131.60 8.27C131.96 7.80 132.48 7.57 133.15 7.57C133.83 7.57 134.37 7.85 134.79 8.41L134.79 11.83C134.26 12.54 133.62 12.91 132.89 12.91ZM146.71 8.67C147.32 8.47 147.80 8.18 148.13 7.76C148.29 7.56 148.39 7.35 148.47 7.13C148.55 6.90 148.58 6.62 148.58 6.29C148.58 5.95 148.53 5.63 148.39 5.29C147.95 4.28 146.85 3.77 145.05 3.77L140.84 3.77L140.84 4.38C140.84 4.52 140.91 4.61 141.05 4.63C141.13 4.66 141.40 4.72 141.85 4.80L141.85 12.78L141.05 12.95C140.91 12.98 140.84 13.06 140.84 13.20L140.84 13.82L145.39 13.82C146.50 13.82 147.36 13.55 147.99 13.02C148.61 12.52 148.92 11.83 148.92 10.96C148.92 9.73 148.19 8.96 146.71 8.67ZM143.21 4.86L145.05 4.86C145.81 4.86 146.34 5.00 146.71 5.28C147.07 5.56 147.24 5.98 147.24 6.57C147.24 6.82 147.18 7.04 147.10 7.27C146.82 7.94 146.12 8.27 145.00 8.27L143.21 8.27ZM145.39 12.74L143.21 12.74L143.21 9.25L145.38 9.25C146.12 9.25 146.68 9.39 147.04 9.70C147.41 10.01 147.57 10.42 147.57 10.93C147.57 11.20 147.55 11.44 147.46 11.66C147.18 12.39 146.50 12.75 145.38 12.75ZM152.81 6.62C152.31 6.62 151.84 6.71 151.42 6.89C151.00 7.07 150.65 7.32 150.37 7.63C150.09 7.94 149.87 8.33 149.72 8.75C149.56 9.17 149.48 9.62 149.48 10.12C149.48 10.74 149.56 11.27 149.73 11.75C149.90 12.22 150.12 12.61 150.43 12.94C150.74 13.26 151.09 13.51 151.51 13.68C151.93 13.85 152.38 13.93 152.87 13.93C153.12 13.93 153.38 13.90 153.64 13.86C153.89 13.82 154.14 13.75 154.39 13.66C154.64 13.58 154.85 13.45 155.08 13.31C155.30 13.17 155.48 13.03 155.64 12.84L155.29 12.38C155.23 12.29 155.16 12.25 155.05 12.25C154.97 12.25 154.88 12.29 154.77 12.36C154.66 12.43 154.52 12.50 154.35 12.59C154.18 12.67 153.99 12.75 153.76 12.82C153.54 12.89 153.26 12.92 152.95 12.92C152.61 12.92 152.33 12.87 152.05 12.75C151.77 12.64 151.55 12.47 151.35 12.25C151.16 12.03 150.99 11.77 150.88 11.44C150.77 11.10 150.71 10.71 150.71 10.26L155.41 10.26C155.53 10.26 155.62 10.22 155.67 10.16C155.71 10.11 155.72 9.97 155.72 9.77C155.72 9.27 155.64 8.82 155.50 8.43C155.36 8.04 155.13 7.70 154.88 7.43C154.63 7.17 154.32 6.97 153.96 6.83C153.59 6.69 153.20 6.62 152.78 6.62ZM152.81 7.55C153.09 7.55 153.36 7.59 153.58 7.69C153.80 7.78 154.00 7.92 154.15 8.09C154.31 8.26 154.41 8.48 154.49 8.72C154.57 8.96 154.62 9.23 154.62 9.51L150.77 9.51C150.85 8.89 151.07 8.40 151.41 8.05C151.75 7.70 152.22 7.53 152.82 7.53Z"></path></g><defs data-v-423bf9ae=""><linearGradient data-v-423bf9ae="" gradientTransform="rotate(25)" id="f73155f8-09cd-4156-b529-9f1e7d1c7ada" x1="0%" y1="0%" x2="100%" y2="0%"><stop data-v-423bf9ae="" offset="0%" style="stop-color: rgb(169, 37, 128); stop-opacity: 1;"></stop><stop data-v-423bf9ae="" offset="100%" style="stop-color: rgb(247, 188, 0); stop-opacity: 1;"></stop></linearGradient></defs><g data-v-423bf9ae="" id="d7bb59af-c172-4536-9bdd-284151c8786f" transform="matrix(1.1402289180290346,0,0,1.1402289180290346,388.7238511326058,-11.43033493714961)" stroke="none" fill="url(#f73155f8-09cd-4156-b529-9f1e7d1c7ada)"><path d="M84.5 23.1c-2.7-.9-5.6-.7-8.3.4-1.6.5-2.7 1.3-2.7 1.3-.9.6-2.1 1-3.3 1.2-.1-1-.3-2.3-.6-3.6 13.7-1 13.3-10.8 13.3-10.9-9.9.4-13 5.1-13.9 8.3-1-3.7-2.8-7.6-5.9-9.4-.7-.4-1.7-.2-2.1.6-.4.7-.2 1.7.6 2.1 3.5 2 5 8.4 5.5 12.9-1-.2-2-.6-2.8-1.1 0 0-1.7-1.3-4-1.7-2.3-.7-4.8-.7-7.1 0-7.5 2.5-11 12.4-7.8 22.1C48.6 55 57.3 61 64.8 58.5c1.5-.5 2.9-1.3 4.1-2.4 1.2 1.1 2.5 1.9 4.1 2.4 7.5 2.5 16.2-3.4 19.4-13.2 3.1-9.8-.4-19.7-7.9-22.2z"></path><path d="M91.5 64.7l-19.8 5.6v.1c.5 2 .2 4.1-.8 5.9-1.1 1.9-2.8 3.4-5 3.9-2.1.6-4.4.3-6.2-.7L48.3 73l1.1-1.9 11.4 6.4c1.4.8 3.1 1 4.6.5 1.5-.4 2.8-1.4 3.6-2.8.4-.7.6-1.5.7-2.3.3-2-.6-4-2.3-5L39.6 52.5s-2.9-1.9-6.8-.8h-.1c-.7.1-30.5 8.6-31.8 9H.7L6.8 82l19.9-5.7c2 1.2 17.2 10.7 19.1 11.7 3.4 1.9 7.5.9 8.4.6.1 0 40.7-11.6 40.7-11.6 2.8-.8 5.1-4.6 4.1-8.3-.9-3-4.2-5-7.5-4z"></path></g><!----></svg>