<svg data-v-423bf9ae="" xmlns="http://www.w3.org/2000/svg" viewBox="0 0 74.9039950077868 60" class="icon"><!----><!----><!----><!----><g data-v-423bf9ae="" id="98f9bf3c-d86a-4bf6-93f0-3e6cac0bf070" transform="matrix(0.7601526120193565,0,0,0.7601526120193565,-0.5321063874732843,-7.753557451284152)" stroke="none" fill="white"><path d="M84.5 23.1c-2.7-.9-5.6-.7-8.3.4-1.6.5-2.7 1.3-2.7 1.3-.9.6-2.1 1-3.3 1.2-.1-1-.3-2.3-.6-3.6 13.7-1 13.3-10.8 13.3-10.9-9.9.4-13 5.1-13.9 8.3-1-3.7-2.8-7.6-5.9-9.4-.7-.4-1.7-.2-2.1.6-.4.7-.2 1.7.6 2.1 3.5 2 5 8.4 5.5 12.9-1-.2-2-.6-2.8-1.1 0 0-1.7-1.3-4-1.7-2.3-.7-4.8-.7-7.1 0-7.5 2.5-11 12.4-7.8 22.1C48.6 55 57.3 61 64.8 58.5c1.5-.5 2.9-1.3 4.1-2.4 1.2 1.1 2.5 1.9 4.1 2.4 7.5 2.5 16.2-3.4 19.4-13.2 3.1-9.8-.4-19.7-7.9-22.2z"></path><path d="M91.5 64.7l-19.8 5.6v.1c.5 2 .2 4.1-.8 5.9-1.1 1.9-2.8 3.4-5 3.9-2.1.6-4.4.3-6.2-.7L48.3 73l1.1-1.9 11.4 6.4c1.4.8 3.1 1 4.6.5 1.5-.4 2.8-1.4 3.6-2.8.4-.7.6-1.5.7-2.3.3-2-.6-4-2.3-5L39.6 52.5s-2.9-1.9-6.8-.8h-.1c-.7.1-30.5 8.6-31.8 9H.7L6.8 82l19.9-5.7c2 1.2 17.2 10.7 19.1 11.7 3.4 1.9 7.5.9 8.4.6.1 0 40.7-11.6 40.7-11.6 2.8-.8 5.1-4.6 4.1-8.3-.9-3-4.2-5-7.5-4z"></path></g><!----></svg>